PathFileType	4	(X/Y/Z)	C:\Users\Graham\Documents\MATLAB\MOtoNMS_v2_2\MyData\ElaboratedData\S1\17-05-18\dynamicElaborations\rightStSt\\NE2\NE2.trc
DataRate	CameraRate	NumFrames	NumMarkers	Units	OrigDataRate	DataStartFrame
100	100	11	29	mm	100	4
Frame#	Time	V_Sacral			R_ASIS			L_ASIS			R_Knee_Lat			R_Thigh_Upper			R_Thigh_Front			R_Thigh_Rear			L_Knee_Lat			L_Thigh_Upper			L_Thigh_Front			L_Thigh_Rear			R_Ankle_Lat			R_Shank_Upper			R_Shank_Front			R_Shank_Rear			L_Ankle_Lat			L_Shank_Upper			L_Shank_Front			L_Shank_Rear			R_Heel			R_MTP1			R_MTP5			L_Heel			L_MTP1			L_MTP5			Clavicle			C7			R_Acromium			L_Acromium		
		X1	Y1	Z1	X2	Y2	Z2	X3	Y3	Z3	X4	Y4	Z4	X5	Y5	Z5	X6	Y6	Z6	X7	Y7	Z7	X8	Y8	Z8	X9	Y9	Z9	X10	Y10	Z10	X11	Y11	Z11	X12	Y12	Z12	X13	Y13	Z13	X14	Y14	Z14	X15	Y15	Z15	X16	Y16	Z16	X17	Y17	Z17	X18	Y18	Z18	X19	Y19	Z19	X20	Y20	Z20	X21	Y21	Z21	X22	Y22	Z22	X23	Y23	Z23	X24	Y24	Z24	X25	Y25	Z25	X26	Y26	Z26	X27	Y27	Z27	X28	Y28	Z28	X29	Y29	Z29	

34	0.330000	-69.716962	1060.864406	74.047266	132.732352	1036.928244	194.311410	125.159986	1040.986211	-37.134320	103.516923	531.661029	219.092189	158.761799	882.452024	227.676045	188.896446	763.058457	190.699981	141.744334	753.104014	254.299053	169.408815	543.540578	-106.836398	179.708893	882.793959	-66.893842	218.380645	770.738946	-18.938869	197.889605	762.136970	-101.198568	60.023647	109.094726	202.207095	139.972865	319.668788	186.993448	98.585160	214.984322	128.710699	99.769624	205.356394	209.739702	-131.586211	225.641487	-78.694383	74.573165	350.817640	-69.236233	-20.843048	285.416534	-15.220509	-31.426743	290.905311	-94.471337	-17.316865	55.639098	152.710542	207.879156	63.471705	105.091383	206.406259	56.142428	182.621324	-212.998914	243.230071	-27.517208	-35.581369	94.284864	-1.921086	-58.362907	94.334667	-89.200841	135.045125	1463.418494	92.156100	-4.222853	1570.400962	81.969801	71.654145	1484.317139	284.781205	89.532643	1497.856806	-121.703941	
35	0.340000	-70.992866	1062.008607	74.192371	131.745757	1037.147724	194.711078	123.906045	1042.357289	-36.642396	95.929912	531.549872	219.233545	156.246481	881.873691	228.188030	184.572649	761.867260	191.249604	137.711136	752.889765	254.522604	174.291006	546.354312	-106.801422	180.049681	885.754074	-66.115409	219.249443	773.762865	-18.368892	200.071867	765.730589	-100.901579	50.718102	109.165244	201.991331	131.762711	319.425720	187.230424	89.841255	214.902917	128.802006	90.652783	205.253284	209.862063	-116.615423	218.661046	-78.964646	85.261915	350.643497	-68.662159	-8.424740	282.390445	-14.896103	-18.416093	286.965580	-94.395733	-27.054627	55.854956	152.643341	198.678025	63.151227	105.043813	197.086412	55.834204	182.585535	-199.013448	232.796601	-28.152555	-15.177600	91.888194	-1.588369	-37.682711	90.811402	-89.003700	134.735904	1464.398742	92.790866	-4.539100	1571.313448	82.754485	71.733141	1485.719448	285.460179	88.851648	1499.243645	-121.007289	
36	0.350000	-72.311550	1062.938328	74.331459	130.722635	1037.206417	194.975939	122.600926	1043.506980	-36.278042	88.383294	531.433178	219.318361	153.668417	881.187606	228.701326	180.073226	760.506737	191.842571	133.644298	752.651876	254.711689	178.784993	548.977108	-106.646849	180.111387	888.474297	-65.361763	219.920724	776.547015	-17.824412	201.708819	768.962929	-100.568017	41.470242	109.222013	201.795938	123.599515	319.207306	187.332237	81.029982	214.821488	128.863689	81.679287	205.157185	209.939925	-101.024578	211.124376	-79.428043	96.021034	350.275312	-68.158035	4.366591	278.952207	-14.763903	-5.025930	282.690843	-94.462581	-36.751413	56.064162	152.591107	189.513360	62.832690	105.036000	187.815395	55.534218	182.563051	-184.205857	221.525394	-28.835683	5.875760	89.191528	-1.749709	-16.363691	87.142993	-89.302972	134.445913	1465.184545	93.356431	-4.828526	1572.084889	83.452156	71.821892	1486.953334	286.060747	88.233577	1500.382009	-120.383733	
37	0.360000	-73.645696	1063.672094	74.465536	129.666329	1037.110477	195.119110	121.264385	1044.439938	-36.038987	80.913704	531.305026	219.343292	151.004673	880.404326	229.185620	175.478247	759.039269	192.437146	129.520103	752.364859	254.850627	182.851468	551.420958	-106.401703	179.941255	890.956292	-64.639158	220.448661	779.136818	-17.308677	202.861138	771.821377	-100.209687	32.261804	109.266327	201.620062	115.454526	318.995848	187.310603	72.159109	214.733919	128.898395	72.836970	205.067772	209.973958	-84.838669	203.144954	-80.098858	106.797969	349.769604	-67.823270	17.573109	275.146158	-14.876622	8.674267	278.199849	-94.718654	-46.360640	56.239312	152.550767	180.363132	62.523243	105.062318	178.562942	55.250523	182.559836	-168.553076	209.533257	-29.536845	27.582793	86.306705	-2.499910	5.530349	83.444156	-90.159442	134.176831	1465.762197	93.829645	-5.079759	1572.713558	84.065382	71.945594	1487.980681	286.569012	87.652220	1501.254200	-119.853486	
38	0.370000	-74.972264	1064.235134	74.586256	128.580105	1036.872030	195.157851	119.915246	1045.168357	-35.918261	73.534743	531.160497	219.303473	148.243817	879.538853	229.608914	170.894969	757.542929	192.983326	125.299024	751.992873	254.920335	186.444309	553.689707	-106.097259	179.591384	893.199641	-63.953701	220.853855	781.557380	-16.823739	203.625548	774.317413	-99.843429	23.068137	109.301344	201.457184	107.292941	318.769308	187.191359	63.250398	214.632388	128.906992	64.088430	204.983068	209.966416	-68.067392	194.830818	-80.989692	117.542452	349.171777	-67.742720	31.226359	271.019369	-15.269993	22.617590	273.588915	-95.202916	-55.846428	56.356581	152.515783	171.200729	62.230015	105.110076	169.294394	54.992302	182.577313	-152.023463	196.956715	-30.255261	49.930724	83.338539	-3.892033	27.937501	79.808545	-91.601981	133.929489	1466.124331	94.192574	-5.283396	1573.201096	84.596075	72.125776	1488.779868	286.976726	87.085430	1501.856270	-119.431219	
39	0.380000	-76.274381	1064.655026	74.678169	127.468630	1036.505870	195.108499	118.570059	1045.708300	-35.907605	66.239560	530.996234	219.193340	145.388561	878.606136	229.941952	166.427737	756.089769	193.431508	120.937845	751.498723	254.900543	189.514836	555.774884	-105.762280	179.108434	895.200617	-63.311906	221.120265	783.804233	-16.371339	204.111915	776.479752	-99.488187	13.863366	109.331318	201.298076	99.082489	318.507731	187.003926	54.331472	214.509773	128.887682	55.384802	204.899863	209.919288	-50.708289	186.290586	-82.110095	128.208216	348.519012	-67.977576	45.340428	266.629368	-15.961203	36.745563	268.934105	-95.939673	-65.196212	56.402545	152.478594	161.999655	61.958242	105.164022	159.978266	54.767898	182.613206	-134.583885	183.953976	-31.016361	72.886366	80.388643	-5.933732	50.799638	76.315422	-93.627067	133.703713	1466.270761	94.433578	-5.433207	1573.551854	85.044784	72.377598	1489.344927	287.281581	86.517388	1502.196328	-119.125268	
40	0.390000	-77.541736	1064.957672	74.721748	126.338885	1036.026648	194.982743	117.242289	1046.076346	-36.000074	59.007212	530.811045	219.008344	142.455362	877.617854	230.161723	162.148655	754.726441	193.740858	116.406415	750.856173	254.772022	192.016268	557.654175	-105.419143	178.525953	896.952770	-62.721520	221.205085	785.845632	-15.954417	204.418411	778.344224	-99.163000	4.625692	109.360746	201.134121	90.800155	318.199245	186.772554	45.426690	214.362318	128.836433	46.679711	204.814750	209.833637	-32.751897	177.638013	-83.465155	138.754463	347.843549	-68.559265	59.907445	262.049515	-16.949494	51.013374	264.296012	-96.935216	-74.426643	56.378256	152.433063	152.738864	61.709701	105.210609	150.593681	54.582375	182.662598	-116.207851	170.703444	-31.863540	96.397320	77.559209	-8.589288	74.063778	73.036611	-96.201091	133.498426	1466.209224	94.547630	-5.526766	1573.772101	85.410095	72.707675	1489.682789	287.486058	85.939401	1502.291982	-118.938119	
41	0.400000	-78.769464	1065.163840	74.696720	125.200448	1035.447268	194.785829	115.942038	1046.287026	-36.191403	51.810338	530.606462	218.747081	139.471292	876.581131	230.253744	158.080653	753.464664	193.885337	111.701594	750.060230	254.518751	193.907900	559.292468	-105.081488	177.860101	898.447764	-62.193214	221.056228	787.632992	-15.579614	204.610688	779.942503	-98.886911	-4.658473	109.393645	200.959925	82.436232	317.843571	186.512529	36.550432	214.191648	128.748694	37.939159	204.725477	209.710448	-14.188748	168.994652	-85.053821	149.146747	347.175657	-69.486661	74.894889	257.371583	-18.218285	65.392700	259.726367	-98.178456	-83.580241	56.299171	152.376154	143.407619	61.481933	105.240980	141.135696	54.435275	182.718884	-96.884120	157.399108	-32.846801	120.395211	74.956749	-11.785819	97.681379	70.043844	-99.264332	133.312102	1465.955280	94.535905	-5.565435	1573.868982	85.688449	73.113118	1489.809482	287.595177	85.349448	1502.167443	-118.867803	
42	0.410000	-79.955927	1065.286507	74.585264	124.065182	1034.778707	194.516849	114.676376	1046.351300	-36.480026	44.622192	530.387104	218.413066	136.469137	875.499148	230.212963	154.197781	752.284040	193.856069	106.852367	749.130820	254.129845	195.158954	560.645110	-104.753777	177.109036	899.675111	-61.743245	220.629987	789.113691	-15.260424	204.709714	781.291901	-98.680697	-13.992404	109.433140	200.774410	73.995493	317.452184	186.231611	27.704945	214.005400	128.621664	29.145516	204.632128	209.552284	4.981896	160.490714	-86.866979	159.356957	346.545977	-70.726735	90.244507	252.705468	-19.738117	79.870615	255.275205	-99.644088	-92.713829	56.191022	152.308368	134.008468	61.268597	105.252114	131.616757	54.319387	182.774557	-76.625464	144.243415	-34.011223	144.798049	72.696020	-15.421543	121.604690	67.416641	-102.735442	133.143442	1465.530875	94.404614	-5.553723	1573.849270	85.874508	73.582111	1489.746140	287.613749	84.750991	1501.850736	-118.909678	
43	0.420000	-81.099975	1065.329152	74.374620	122.946431	1034.030871	194.170839	113.450401	1046.276144	-36.865963	37.421959	530.160650	218.015461	133.482111	874.373032	230.043325	150.439218	751.143935	193.660041	101.914426	748.108425	253.600886	195.752449	561.662829	-104.432873	176.255796	900.620171	-61.396481	219.902490	790.240779	-15.020028	204.689859	782.387739	-98.569262	-23.369314	109.481456	200.580246	65.495542	317.045401	185.934428	18.883092	213.816172	128.456079	20.296279	204.537767	209.364597	24.741986	152.264400	-88.885652	169.362250	345.987056	-72.218512	105.872972	248.175948	-21.469541	94.444061	250.997297	-101.296331	-101.882703	56.082971	152.232936	124.557149	61.061001	105.246269	122.063436	54.221255	182.822036	-55.477165	131.438753	-35.388033	169.509527	70.903541	-19.374118	145.780177	65.249835	-106.515603	132.991997	1464.961517	94.163088	-5.498139	1573.718160	85.961966	74.095927	1489.515463	287.543891	84.151574	1501.371248	-119.058145	
44	0.430000	-82.198355	1065.285068	74.058757	121.857902	1033.213722	193.742111	112.268976	1046.065090	-37.348980	30.198132	529.937219	217.568423	130.539593	873.204074	229.756256	146.729452	749.998228	193.316056	96.957167	747.043838	252.934315	195.689371	562.297815	-104.111465	175.274001	901.260823	-61.188650	218.872234	790.976480	-14.892547	204.485730	783.199124	-98.582963	-32.774639	109.540257	200.382040	56.962779	316.647493	185.626775	10.074388	213.639069	128.256793	11.399826	204.448372	209.155806	45.044422	144.459913	-91.079811	179.143091	345.534055	-73.879952	121.674528	243.916509	-23.364973	109.110694	246.956790	-103.092197	-111.126075	56.000441	152.154197	115.079104	60.850479	105.229311	112.509153	54.123598	182.854689	-33.524480	119.179122	-36.990162	194.414592	69.718798	-23.507793	170.139934	63.658369	-110.491990	132.858475	1464.272513	93.821375	-5.405776	1573.478384	85.944424	74.632076	1489.139081	287.383559	83.561615	1500.757620	-119.307988	
